<svg width="1161" height="781" viewBox="0 0 1161 781" fill="none" xmlns="http://www.w3.org/2000/svg">
<g filter="url(#filter0_dgfn_256_53)">
<path d="M167.119 458.387C240.226 312.279 1056.93 -165.276 1011.15 284.401C999.452 399.265 -1.42191 763.177 167.119 458.387ZM167.119 476.339C240.226 330.232 1056.93 -147.324 1011.15 302.354C999.452 417.217 -1.42191 781.129 167.119 476.339ZM167.119 494.291C240.226 348.184 1056.93 -129.372 1011.15 320.306C999.452 435.169 -1.42191 799.081 167.119 494.291ZM167.119 512.243C240.226 366.136 1056.93 -111.42 1011.15 338.258C999.452 453.121 -1.42194 817.033 167.119 512.243ZM167.119 530.195C240.226 384.088 1056.93 -93.4682 1011.15 356.21C999.452 471.073 -1.42194 834.985 167.119 530.195ZM167.119 548.147C240.226 402.04 1056.93 -75.5162 1011.15 374.162C999.452 489.025 -1.42194 852.937 167.119 548.147ZM167.119 566.099C240.226 419.992 1056.93 -57.5641 1011.15 392.114C999.452 506.977 -1.42195 870.889 167.119 566.099Z" stroke="#126925" stroke-opacity="0.15" stroke-width="26" stroke-linecap="round"/>
</g>
<defs>
<filter id="filter0_dgfn_256_53" x="87.6839" y="44.205" width="985.615" height="717.091" filterUnits="userSpaceOnUse" color-interpolation-filters="sRGB">
<feFlood flood-opacity="0" result="BackgroundImageFix"/>
<feColorMatrix in="SourceAlpha" type="matrix" values="0 0 0 0 0 0 0 0 0 0 0 0 0 0 0 0 0 0 127 0" result="hardAlpha"/>
<feOffset dy="16"/>
<feGaussianBlur stdDeviation="23.65"/>
<feColorMatrix type="matrix" values="0 0 0 0 0.237122 0 0 0 0 0.711538 0 0 0 0 0.174464 0 0 0 1 0"/>
<feBlend mode="normal" in2="BackgroundImageFix" result="effect1_dropShadow_256_53"/>
<feBlend mode="normal" in="SourceGraphic" in2="effect1_dropShadow_256_53" result="shape"/>
<feTurbulence type="fractalNoise" baseFrequency="1.6666666269302368 1.6666666269302368" numOctaves="3" seed="1489" />
<feDisplacementMap in="shape" scale="73" xChannelSelector="R" yChannelSelector="G" result="displacedImage" width="100%" height="100%" />
<feMerge result="effect2_texture_256_53">
<feMergeNode in="displacedImage"/>
</feMerge>
<feGaussianBlur stdDeviation="17.05" result="effect3_foregroundBlur_256_53"/>
<feTurbulence type="fractalNoise" baseFrequency="3.3333332538604736 3.3333332538604736" stitchTiles="stitch" numOctaves="3" result="noise" seed="3732" />
<feComponentTransfer in="noise" result="coloredNoise1">
<feFuncR type="linear" slope="2" intercept="-0.5" />
<feFuncG type="linear" slope="2" intercept="-0.5" />
<feFuncB type="linear" slope="2" intercept="-0.5" />
<feFuncA type="discrete" tableValues="1 1 1 1 1 1 1 1 1 1 1 1 1 1 1 1 1 1 1 1 1 1 1 1 1 1 1 1 1 1 1 1 1 1 1 1 1 1 1 1 1 1 1 1 1 1 1 1 1 1 1 0 0 0 0 0 0 0 0 0 0 0 0 0 0 0 0 0 0 0 0 0 0 0 0 0 0 0 0 0 0 0 0 0 0 0 0 0 0 0 0 0 0 0 0 0 0 0 0 0 "/>
</feComponentTransfer>
<feComposite operator="in" in2="effect3_foregroundBlur_256_53" in="coloredNoise1" result="noise1Clipped" />
<feComponentTransfer in="noise1Clipped" result="color1">
<feFuncA type="table" tableValues="0 0.16" />
</feComponentTransfer>
<feMerge result="effect4_noise_256_53">
<feMergeNode in="effect3_foregroundBlur_256_53" />
<feMergeNode in="color1" />
</feMerge>
</filter>
</defs>
</svg>
