<svg width="1161" height="781" viewBox="0 0 1161 781" fill="none" xmlns="http://www.w3.org/2000/svg">
<g filter="url(#filter0_dg_130_3455)">
<path d="M167.119 458.387C240.226 312.279 1056.93 -165.276 1011.15 284.401C999.452 399.265 -1.42191 763.177 167.119 458.387ZM167.119 476.339C240.226 330.232 1056.93 -147.324 1011.15 302.354C999.452 417.217 -1.42191 781.129 167.119 476.339ZM167.119 494.291C240.226 348.184 1056.93 -129.372 1011.15 320.306C999.452 435.169 -1.42191 799.081 167.119 494.291ZM167.119 512.243C240.226 366.136 1056.93 -111.42 1011.15 338.258C999.452 453.121 -1.42194 817.033 167.119 512.243ZM167.119 530.195C240.226 384.088 1056.93 -93.4682 1011.15 356.21C999.452 471.073 -1.42194 834.985 167.119 530.195ZM167.119 548.147C240.226 402.04 1056.93 -75.5162 1011.15 374.162C999.452 489.025 -1.42194 852.937 167.119 548.147ZM167.119 566.099C240.226 419.992 1056.93 -57.5641 1011.15 392.114C999.452 506.977 -1.42195 870.889 167.119 566.099Z" stroke="url(#paint0_linear_130_3455)" stroke-width="2" stroke-miterlimit="16" stroke-linecap="round" stroke-linejoin="round" style="mix-blend-mode:lighten"/>
</g>
<defs>
<filter id="filter0_dg_130_3455" x="99.6985" y="58.5004" width="961.601" height="690.799" filterUnits="userSpaceOnUse" color-interpolation-filters="sRGB">
<feFlood flood-opacity="0" result="BackgroundImageFix"/>
<feColorMatrix in="SourceAlpha" type="matrix" values="0 0 0 0 0 0 0 0 0 0 0 0 0 0 0 0 0 0 127 0" result="hardAlpha"/>
<feOffset dy="16"/>
<feGaussianBlur stdDeviation="23.65"/>
<feColorMatrix type="matrix" values="0 0 0 0 1 0 0 0 0 1 0 0 0 0 1 0 0 0 1 0"/>
<feBlend mode="normal" in2="BackgroundImageFix" result="effect1_dropShadow_130_3455"/>
<feBlend mode="normal" in="SourceGraphic" in2="effect1_dropShadow_130_3455" result="shape"/>
<feTurbulence type="fractalNoise" baseFrequency="1.6666666269302368 1.6666666269302368" numOctaves="3" seed="1489" />
<feDisplacementMap in="shape" scale="73" xChannelSelector="R" yChannelSelector="G" result="displacedImage" width="100%" height="100%" />
<feMerge result="effect2_texture_130_3455">
<feMergeNode in="displacedImage"/>
</feMerge>
</filter>
<linearGradient id="paint0_linear_130_3455" x1="942.566" y1="299.535" x2="138.416" y2="299.535" gradientUnits="userSpaceOnUse">
<stop stop-color="white"/>
<stop offset="1" stop-color="#909090"/>
</linearGradient>
</defs>
</svg>
