<svg width="1222" height="254" viewBox="0 0 1222 254" fill="none" xmlns="http://www.w3.org/2000/svg">
<mask id="path-1-outside-1_361_64" maskUnits="userSpaceOnUse" x="-0.628906" y="0.574219" width="1223" height="253" fill="black">
<rect fill="white" x="-0.628906" y="0.574219" width="1223" height="253"/>
<path d="M81.3391 3.25424L48.7471 210.23H149.883L143.835 248.87H1.37109L40.3471 3.25424H81.3391ZM212.479 62.0542H174.847V23.7502H212.479V62.0542ZM212.479 248.87H174.847V85.2382H212.479V248.87ZM386.684 248.87H348.716V146.726C348.716 136.646 346.588 128.47 342.332 122.198C338.076 115.926 329.564 112.79 316.796 112.79C307.612 112.79 300.332 114.694 294.956 118.502C289.58 122.086 285.66 127.238 283.196 133.958C280.956 140.454 279.836 148.182 279.836 157.142L277.82 141.686C278.94 131.606 281.628 121.974 285.884 112.79C290.14 103.606 296.3 96.2142 304.364 90.6142C312.428 84.7902 322.732 81.8782 335.276 81.8782C351.18 81.8782 363.724 86.4702 372.908 95.6542C382.092 104.838 386.684 117.942 386.684 134.966V248.87ZM279.836 248.87H242.204V85.2382H279.836V248.87ZM452.85 248.87H415.218V23.7502H452.85V126.902L451.506 158.486L478.386 128.918L523.074 85.2382H569.106L486.45 165.878L482.418 167.222L452.85 196.79V248.87ZM569.106 248.87H525.09L470.658 161.846L498.21 143.366L569.106 248.87ZM622.974 248.87H585.006V23.7502H622.974V248.87ZM720.75 160.166H597.774V126.566H720.75V160.166ZM741.246 57.3502H597.774V23.7502H741.246V57.3502ZM780.773 248.87H750.533L789.509 1.57422H819.749L780.773 248.87ZM896.171 252.23C880.491 252.23 866.603 248.758 854.507 241.814C842.635 234.646 833.339 224.678 826.619 211.91C820.123 198.918 816.875 184.022 816.875 167.222C816.875 149.974 820.123 135.078 826.619 122.534C833.339 109.766 842.635 99.7982 854.507 92.6302C866.603 85.4622 880.491 81.8782 896.171 81.8782C912.075 81.8782 925.963 85.4622 937.835 92.6302C949.931 99.7982 959.339 109.766 966.059 122.534C972.779 135.078 976.139 149.974 976.139 167.222C976.139 184.022 972.779 198.918 966.059 211.91C959.339 224.678 949.931 234.646 937.835 241.814C925.963 248.758 912.075 252.23 896.171 252.23ZM896.507 220.982C904.795 220.982 911.963 219.078 918.011 215.27C924.283 211.462 929.099 205.638 932.459 197.798C936.043 189.734 937.835 179.542 937.835 167.222C937.835 154.454 936.043 144.15 932.459 136.31C929.099 128.47 924.283 122.646 918.011 118.838C911.963 115.03 904.795 113.126 896.507 113.126C888.667 113.126 881.611 115.03 875.339 118.838C869.067 122.646 864.139 128.47 860.555 136.31C857.195 144.15 855.515 154.454 855.515 167.222C855.515 179.542 857.195 189.734 860.555 197.798C864.139 205.638 869.067 211.462 875.339 215.27C881.611 219.078 888.667 220.982 896.507 220.982ZM1063.38 248.87H1015L973.332 85.2382H1015.33L1032.13 177.302L1039.19 223.334L1049.6 177.302L1074.47 85.2382H1119.16L1144.36 177.302L1154.44 223.334L1161.49 177.302L1178.63 85.2382H1220.63L1178.63 248.87H1130.58L1107.4 164.198L1096.98 113.462L1086.23 164.198L1063.38 248.87Z"/>
</mask>
<path d="M81.3391 3.25424L48.7471 210.23H149.883L143.835 248.87H1.37109L40.3471 3.25424H81.3391ZM212.479 62.0542H174.847V23.7502H212.479V62.0542ZM212.479 248.87H174.847V85.2382H212.479V248.87ZM386.684 248.87H348.716V146.726C348.716 136.646 346.588 128.47 342.332 122.198C338.076 115.926 329.564 112.79 316.796 112.79C307.612 112.79 300.332 114.694 294.956 118.502C289.58 122.086 285.66 127.238 283.196 133.958C280.956 140.454 279.836 148.182 279.836 157.142L277.82 141.686C278.94 131.606 281.628 121.974 285.884 112.79C290.14 103.606 296.3 96.2142 304.364 90.6142C312.428 84.7902 322.732 81.8782 335.276 81.8782C351.18 81.8782 363.724 86.4702 372.908 95.6542C382.092 104.838 386.684 117.942 386.684 134.966V248.87ZM279.836 248.87H242.204V85.2382H279.836V248.87ZM452.85 248.87H415.218V23.7502H452.85V126.902L451.506 158.486L478.386 128.918L523.074 85.2382H569.106L486.45 165.878L482.418 167.222L452.85 196.79V248.87ZM569.106 248.87H525.09L470.658 161.846L498.21 143.366L569.106 248.87ZM622.974 248.87H585.006V23.7502H622.974V248.87ZM720.75 160.166H597.774V126.566H720.75V160.166ZM741.246 57.3502H597.774V23.7502H741.246V57.3502ZM780.773 248.87H750.533L789.509 1.57422H819.749L780.773 248.87ZM896.171 252.23C880.491 252.23 866.603 248.758 854.507 241.814C842.635 234.646 833.339 224.678 826.619 211.91C820.123 198.918 816.875 184.022 816.875 167.222C816.875 149.974 820.123 135.078 826.619 122.534C833.339 109.766 842.635 99.7982 854.507 92.6302C866.603 85.4622 880.491 81.8782 896.171 81.8782C912.075 81.8782 925.963 85.4622 937.835 92.6302C949.931 99.7982 959.339 109.766 966.059 122.534C972.779 135.078 976.139 149.974 976.139 167.222C976.139 184.022 972.779 198.918 966.059 211.91C959.339 224.678 949.931 234.646 937.835 241.814C925.963 248.758 912.075 252.23 896.171 252.23ZM896.507 220.982C904.795 220.982 911.963 219.078 918.011 215.27C924.283 211.462 929.099 205.638 932.459 197.798C936.043 189.734 937.835 179.542 937.835 167.222C937.835 154.454 936.043 144.15 932.459 136.31C929.099 128.47 924.283 122.646 918.011 118.838C911.963 115.03 904.795 113.126 896.507 113.126C888.667 113.126 881.611 115.03 875.339 118.838C869.067 122.646 864.139 128.47 860.555 136.31C857.195 144.15 855.515 154.454 855.515 167.222C855.515 179.542 857.195 189.734 860.555 197.798C864.139 205.638 869.067 211.462 875.339 215.27C881.611 219.078 888.667 220.982 896.507 220.982ZM1063.38 248.87H1015L973.332 85.2382H1015.33L1032.13 177.302L1039.19 223.334L1049.6 177.302L1074.47 85.2382H1119.16L1144.36 177.302L1154.44 223.334L1161.49 177.302L1178.63 85.2382H1220.63L1178.63 248.87H1130.58L1107.4 164.198L1096.98 113.462L1086.23 164.198L1063.38 248.87Z" stroke="url(#paint0_linear_361_64)" stroke-width="2" mask="url(#path-1-outside-1_361_64)"/>
<defs>
<linearGradient id="paint0_linear_361_64" x1="605.759" y1="276.87" x2="605.759" y2="-25.1299" gradientUnits="userSpaceOnUse">
<stop stop-color="#4E4E4E"/>
<stop offset="1" stop-color="#F2F2F2" stop-opacity="0.38"/>
</linearGradient>
</defs>
</svg>
